<svg width="24" height="24" viewBox="0 0 24 24" fill="none" xmlns="http://www.w3.org/2000/svg">
<path d="M11.7937 20.7844C12.0844 20.4938 12.075 20.0344 11.7937 19.7251L5.56875 12.7506H20.25C20.6625 12.7506 21 12.4131 21 12.0006C21 11.5882 20.6625 11.2507 20.25 11.2507H5.56875L11.7844 4.27621C12.0563 3.95748 12.0844 3.51689 11.7937 3.22628C11.5031 2.93568 10.9969 2.91693 10.725 3.21691C10.725 3.21691 3.3 11.3726 3.225 11.4663C3.15 11.5601 3 11.7288 3 12.0006C3 12.2725 3.15 12.46 3.225 12.535C3.3 12.61 10.725 20.7844 10.725 20.7844C10.8656 20.925 11.0625 21 11.2594 21C11.4562 21 11.6438 20.925 11.7937 20.7844Z" fill="#D1D2DD"/>
</svg>
