<svg width="24" height="24" viewBox="0 0 24 24" fill="none" xmlns="http://www.w3.org/2000/svg">
<path d="M15.59 7L12 10.59L8.41 7C8.41 7 8 7 7.5 7.5C7 8 7 8.41 7 8.41L10.59 12L7 15.59C7 15.59 7 16 7.5 16.5C8 17 8.41 17 8.41 17L12 13.41L15.59 17C15.59 17 16 17 16.5 16.5C17 16 17 15.59 17 15.59L13.41 12L17 8.41C17 8.41 17 8 16.5 7.5C16 7 15.59 7 15.59 7Z" fill="#FF2400"/>
<path fill-rule="evenodd" clip-rule="evenodd" d="M12 22C17.5228 22 22 17.5228 22 12C22 6.47715 17.5228 2 12 2C6.47715 2 2 6.47715 2 12C2 17.5228 6.47715 22 12 22ZM12 24C18.6274 24 24 18.6274 24 12C24 5.37258 18.6274 0 12 0C5.37258 0 0 5.37258 0 12C0 18.6274 5.37258 24 12 24Z" fill="#FF2400"/>
</svg>
