<svg width="24" height="24" viewBox="0 0 24 24" fill="none" xmlns="http://www.w3.org/2000/svg">
<path d="M17.7619 22.0001C18.9191 22.0001 19.8572 21.0575 19.8572 19.8948C19.8572 18.7321 18.9191 17.7896 17.7619 17.7896C16.6048 17.7896 15.6667 18.7321 15.6667 19.8948C15.6667 21.0575 16.6048 22.0001 17.7619 22.0001Z" stroke="#D1D2DD" stroke-width="1.4"/>
<path d="M9.38094 22.0001C10.5381 22.0001 11.4762 21.0575 11.4762 19.8948C11.4762 18.7321 10.5381 17.7896 9.38094 17.7896C8.22378 17.7896 7.28571 18.7321 7.28571 19.8948C7.28571 21.0575 8.22378 22.0001 9.38094 22.0001Z" stroke="#D1D2DD" stroke-width="1.4"/>
<path d="M1 2H4.14286L7.09698 13.873C7.20787 14.3187 7.60811 14.6316 8.06739 14.6316H19.163C19.5804 14.6316 19.9539 14.3723 20.0999 13.9812L22.4963 7.56018C22.7402 6.90667 22.257 6.21053 21.5594 6.21053H5.54139" stroke="#D1D2DD" stroke-width="1.4" stroke-linecap="round"/>
</svg>
