<svg width="24" height="24" viewBox="0 0 24 24" fill="none" xmlns="http://www.w3.org/2000/svg">
<path fill-rule="evenodd" clip-rule="evenodd" d="M3 8.69185C3 3.89916 7.03737 0 12 0C16.9626 0 20.9999 3.89916 21 8.69185C21 14.6397 12.9459 23.3716 12.603 23.7404C12.2815 24.0862 11.7191 24.0868 11.397 23.7404C11.0541 23.3716 3 14.6397 3 8.69185ZM8.14426 8.69186C8.14426 10.7452 9.87391 12.4156 12 12.4156C14.126 12.4156 15.8557 10.7452 15.8557 8.6919C15.8557 6.63859 14.126 4.96812 12 4.96812C9.87395 4.96812 8.14426 6.63855 8.14426 8.69186Z" fill="#D1D2DD"/>
</svg>
