<svg width="144" height="144" viewBox="0 0 144 144" fill="none" xmlns="http://www.w3.org/2000/svg">
<path fill-rule="evenodd" clip-rule="evenodd" d="M0 72C0 111.765 32.2355 144 72 144C111.765 144 144 111.765 144 72C144 32.2355 111.765 0 72 0C32.2355 0 0 32.2355 0 72ZM140 72C140 109.555 109.555 140 72 140C34.4446 140 3.99997 109.555 3.99997 72C3.99997 34.4446 34.4446 4 72 4C109.555 4 140 34.4446 140 72Z" fill="#FF2400"/>
<path d="M52.896 48L96 91.1041L91.1041 96L48 52.896L52.896 48Z" fill="#FF2400"/>
<path d="M96 52.8959L52.8959 96L48 91.104L91.104 48L96 52.8959Z" fill="#FF2400"/>
</svg>
