<svg width="40" height="40" viewBox="0 0 40 40" fill="none" xmlns="http://www.w3.org/2000/svg">
<path d="M39.5 20C39.5 30.7696 30.7696 39.5 20 39.5C9.23045 39.5 0.5 30.7696 0.5 20C0.5 9.23045 9.23045 0.5 20 0.5C30.7696 0.5 39.5 9.23045 39.5 20Z" stroke="#D1D2DD"/>
<path fill-rule="evenodd" clip-rule="evenodd" d="M11.5373 21.6131C11.6731 20.9863 12.1512 20.4982 12.7764 20.3155L12.6999 15.9318C12.6975 15.7915 12.811 15.676 12.9538 15.6736L13.214 15.669L13.1565 12.3747C13.154 12.2344 13.2675 12.119 13.4104 12.1165L14.7 12.094L15.7333 12.0759L17.0224 12.0534C17.1652 12.0509 17.2827 12.1623 17.2852 12.3027L17.3427 15.5969L17.6036 15.5924C17.7464 15.5899 17.8639 15.7013 17.8663 15.8416L17.9416 20.1555L18.7166 20.142L18.6458 16.0826C18.6398 15.739 18.8096 15.4333 19.0728 15.2449C18.6654 15.0175 18.3832 14.598 18.3555 14.1098L18.3387 13.2961C18.3289 12.736 18.7847 12.2722 19.3548 12.2622L20.1283 12.2487C20.6982 12.2388 21.1701 12.6862 21.1801 13.246L21.9551 13.2324C22.098 13.2299 22.2154 13.3414 22.2179 13.4817C22.2203 13.622 22.1068 13.7375 21.964 13.74L21.189 13.7535L21.1934 14.0067C21.2023 14.518 20.9283 14.9691 20.5143 15.2195C20.7838 15.3988 20.9645 15.6985 20.9705 16.0418L20.9794 16.5488L21.7544 16.5353C22.1816 16.5278 22.5353 16.8633 22.5426 17.283C22.55 17.7027 22.2082 18.0504 21.7809 18.0578L21.0059 18.0713L21.0237 19.0864L21.2732 19.082C21.8433 19.0721 22.3153 19.5197 22.325 20.0798L22.3826 23.3781C22.9597 23.368 23.4314 23.8149 23.4417 24.3747L23.6455 24.3711C25.4841 22.7848 25.6886 20.8823 24.312 18.2159C24.277 18.1483 24.2266 18.107 24.1526 18.0865C24.0791 18.0659 24.0144 18.0737 23.9474 18.1132L23.5617 18.3407C23.3259 18.4801 22.9929 18.3984 22.8516 18.1673L22.7197 17.9513C22.6484 17.835 22.6277 17.6983 22.6613 17.5663C22.6949 17.4339 22.7785 17.3231 22.8967 17.2532C23.0428 17.1669 23.1917 17.0683 23.3409 16.9694L23.3477 16.9649L23.3582 16.9579L23.3582 16.9579C23.5146 16.8544 23.671 16.7509 23.8241 16.6606C23.9794 16.5688 24.1573 16.5187 24.3379 16.5156C24.697 16.5093 25.0279 16.6817 25.2235 16.9771L27.3961 20.2552C28.0901 20.3419 28.553 21.1011 28.5621 21.6203C28.5649 21.7842 28.54 21.9106 28.5035 22.0112C30.2006 22.0742 31.5999 23.3781 31.7274 25.0591C31.7341 25.1432 31.6973 25.2249 31.63 25.2773C31.5624 25.3298 31.4733 25.3455 31.3914 25.3201C31.3084 25.2945 31.2256 25.2666 31.1429 25.2386L31.1428 25.2386L31.1428 25.2386L31.1428 25.2386L31.1427 25.2386L31.1427 25.2386L31.1427 25.2386L31.1426 25.2385L31.1426 25.2385L31.1425 25.2385L31.1206 25.2311C31.1032 25.2252 31.0862 25.2196 31.0691 25.214L31.0307 25.2012C31.1497 25.4931 31.2191 25.8099 31.2249 26.1428C31.2505 27.6121 30.0546 28.8285 28.5589 28.8546C27.0766 28.8805 25.8494 27.7272 25.8026 26.2766C25.6864 26.2218 25.5694 26.1621 25.4505 26.1005C25.3628 26.055 25.2731 26.0089 25.1816 25.9635C24.9287 26.2195 24.6133 26.3849 24.2516 26.3912L16.7615 26.522C16.3337 26.5294 15.98 26.1937 15.9727 25.7737L15.9663 25.4098C15.9134 25.4433 15.8684 25.4707 15.8385 25.4887C15.7993 25.5118 15.7551 25.5242 15.7097 25.525L15.2924 25.5323C15.3988 25.8084 15.4614 26.1058 15.4668 26.4177C15.4925 27.8869 14.2963 29.1033 12.8008 29.1294C11.3048 29.1556 10.0675 27.9816 10.0418 26.5123C10.0364 26.2005 10.0883 25.9011 10.1847 25.6214L8.99299 25.6422C8.85013 25.6447 8.73268 25.5333 8.73023 25.393L8.72581 25.14C8.696 23.4317 9.90483 21.9802 11.5373 21.6131ZM16.0008 12.5789L16.0135 13.3108C16.015 13.3945 15.974 13.4736 15.9046 13.5221C15.8617 13.552 15.8111 13.5681 15.7596 13.569C15.7279 13.5696 15.696 13.5645 15.6661 13.5536L15.2393 13.3994L14.8193 13.5684C14.74 13.5998 14.6502 13.5912 14.5796 13.5455C14.5082 13.4992 14.4648 13.4218 14.4633 13.3381L14.4505 12.6062L13.6776 12.6197L13.7307 15.66L14.5036 15.6465L16.0536 15.6194L16.826 15.606L16.7729 12.5654L16.0008 12.5789ZM17.0947 16.1089L17.3541 16.1044L17.425 20.1645L13.2916 20.2367L13.2208 16.1766L13.4812 16.1723L14.2541 16.1588L14.2718 17.1735C14.2733 17.2553 14.3144 17.3312 14.3824 17.3777C14.4279 17.4084 14.4811 17.4237 14.5346 17.4228C14.562 17.4223 14.5895 17.4175 14.616 17.4084L15.3054 17.1692L16.0027 17.3842C16.0817 17.4087 16.1683 17.3943 16.2346 17.3454C16.3015 17.2963 16.3399 17.2189 16.3385 17.1375L16.3208 16.1227L17.0947 16.1089ZM20.633 13.7629L20.4313 13.7664L18.9037 13.7929C18.8818 13.8681 18.87 13.9473 18.8701 14.0295L18.8696 14.0557C18.8832 14.5415 19.2926 14.9286 19.7886 14.9199C20.2866 14.911 20.6853 14.5055 20.6767 14.0155C20.6752 13.9272 20.659 13.8427 20.633 13.7629ZM19.3639 12.7695L20.1374 12.756C20.4223 12.751 20.6583 12.9746 20.6637 13.2547L18.8556 13.2855C18.8512 13.0059 19.0793 12.7745 19.3639 12.7695ZM22.399 23.8855L21.8751 23.8946L21.8086 20.0888C21.8038 19.8086 21.5678 19.5845 21.2823 19.5895L20.5161 19.6029L20.4895 18.0806L19.9083 18.0908C19.7657 18.0932 19.648 17.9818 19.6455 17.8415C19.6431 17.7012 19.7566 17.5857 19.8994 17.5832L20.4807 17.5731L20.739 17.5686L21.7723 17.5506C21.9149 17.5481 22.0287 17.4324 22.0263 17.2923C22.0238 17.1522 21.9061 17.0405 21.7635 17.043L20.4718 17.0656L20.4541 16.0511C20.4492 15.7709 20.2133 15.5471 19.9278 15.5521L19.671 15.5566C19.3858 15.5615 19.1578 15.7935 19.1627 16.0736L19.2336 20.133L19.9848 20.1198L20.2659 20.1152C20.6937 20.1077 21.0476 20.4435 21.0549 20.8634L21.1169 24.4153L22.9253 24.3837C22.9196 24.1038 22.6839 23.8805 22.399 23.8855ZM20.1562 24.432C19.6324 24.1214 19.0347 23.5599 19.0181 22.6116C19.0041 21.8095 19.3993 21.0736 20.074 20.6262L20.2744 20.6227C20.4173 20.6202 20.5355 20.7321 20.538 20.8725L20.6 24.4243L20.1562 24.432ZM28.55 28.3469C29.7608 28.3257 30.729 27.341 30.7082 26.1516C30.7011 25.7461 30.5783 25.3695 30.3732 25.049C30.3689 25.0489 30.3644 25.0484 30.3598 25.0478L30.3598 25.0478C30.3548 25.0472 30.3499 25.0466 30.3452 25.0467C30.0595 25.0521 29.792 25.12 29.5315 25.2215C29.7737 25.4666 29.9268 25.7972 29.9332 26.1651C29.9467 26.9348 29.3203 27.5719 28.5368 27.5856C27.8261 27.598 27.2283 27.0926 27.113 26.4243C26.9839 26.458 26.8526 26.4847 26.7174 26.4964C26.6911 26.4987 26.6647 26.4999 26.6384 26.5003C26.5361 26.5021 26.4356 26.4904 26.3352 26.4688C26.4767 27.5429 27.4224 28.3666 28.55 28.3469ZM25.6632 25.6362C25.622 25.615 25.5803 25.5935 25.5384 25.5722C25.5315 25.5015 25.5274 25.4303 25.5259 25.3587C25.499 23.8166 26.7543 22.54 28.3239 22.5126C29.6951 22.4887 30.8684 23.4254 31.1538 24.7054C30.8804 24.6149 30.6017 24.5343 30.3374 24.5389C29.5255 24.5548 28.866 24.9494 28.2284 25.3308C27.7011 25.6464 27.2031 25.9442 26.6724 25.9906C26.3897 26.0124 26.072 25.8479 25.6959 25.653L25.692 25.651L25.6632 25.6362ZM10.5585 26.5033C10.5793 27.6927 11.5812 28.6431 12.792 28.6219C14.0025 28.6008 14.9709 27.616 14.9502 26.4267C14.9446 26.1097 14.8678 25.8105 14.7368 25.542L13.83 25.5578C14.0386 25.7958 14.169 26.1022 14.1749 26.4402C14.1883 27.2099 13.5619 27.847 12.7784 27.8607C11.9949 27.8744 11.3467 27.2595 11.3332 26.4898C11.3273 26.1518 11.4465 25.8411 11.6466 25.5959L10.7398 25.6118C10.619 25.8847 10.553 26.1864 10.5585 26.5033ZM16.5941 24.232L16.5733 24.2545C16.2886 24.5683 15.9059 24.8492 15.6303 25.019L9.24249 25.1305C9.23759 24.8498 9.27472 24.5786 9.3428 24.319C9.38513 24.3462 9.43302 24.3656 9.48753 24.3647L12.0226 24.3204C12.1654 24.3179 12.2789 24.2025 12.2765 24.0622C12.274 23.9218 12.1566 23.8104 12.0137 23.8129L9.50605 23.8567C9.58862 23.672 9.68946 23.4974 9.80624 23.3336C9.81171 23.3347 9.81706 23.336 9.82238 23.3374C9.83373 23.3402 9.84501 23.3431 9.85731 23.3429L12.5375 23.2961C12.6804 23.2936 12.7939 23.1782 12.7914 23.0378C12.789 22.8975 12.6715 22.7861 12.5287 22.7886L10.2592 22.8282C10.7973 22.3464 11.5068 22.0449 12.2898 22.0313L15.4994 21.9752C16.2834 22.0803 16.9535 22.7621 16.9659 23.4726C16.9671 23.5424 16.9555 23.616 16.931 23.6926C16.9289 23.699 16.9263 23.7053 16.9237 23.7117C16.922 23.7157 16.9204 23.7197 16.9189 23.7237C16.9092 23.7506 16.8991 23.7779 16.8864 23.8058C16.8795 23.8211 16.8712 23.8365 16.8629 23.8519C16.8608 23.8557 16.8588 23.8596 16.8567 23.8634C16.855 23.8667 16.8533 23.8699 16.8516 23.8732C16.8437 23.8886 16.8357 23.9039 16.8264 23.9195C16.8121 23.9437 16.7962 23.9678 16.7801 23.9919C16.7713 24.0058 16.7625 24.0191 16.7532 24.0328C16.734 24.0598 16.7138 24.0868 16.6926 24.1135C16.6866 24.1208 16.6808 24.1283 16.675 24.1356C16.6724 24.1389 16.6699 24.1422 16.6673 24.1454C16.6435 24.1745 16.6195 24.2036 16.5941 24.232Z" fill="#D1D2DD"/>
</svg>
