<svg width="20" height="22" viewBox="0 0 20 22" fill="none" xmlns="http://www.w3.org/2000/svg">
<path d="M4.03223 6.88043C4.14563 6.97513 4.23816 7.05716 4.329 7.14595C4.80493 7.61108 5.08063 8.12445 5.08122 8.76058V17.8549C5.08122 18.1235 5.06318 18.3634 5.03285 18.572C5.01402 18.7015 4.9944 18.7944 4.97971 18.8483C4.97143 18.894 4.96038 18.9342 4.94575 18.9729L4.90459 19.1238L4.86819 19.1195C4.79342 19.2273 4.68647 19.3193 4.55468 19.3961L4.47732 19.4412H0.603904L0.526541 19.3961C0.394608 19.3192 0.287644 19.2272 0.212903 19.1195L0.176539 19.1238L0.13553 18.9732C0.12084 18.9345 0.109752 18.894 0.102502 18.852C0.086804 18.7943 0.0671898 18.7013 0.0483668 18.5718C0.0180412 18.3632 0 18.1233 0 17.8549V8.76058C0 8.12445 0.275573 7.61107 0.751779 7.14573C0.842489 7.05709 0.934833 6.97521 1.04822 6.88048C1.04681 6.88165 1.23341 6.72774 1.27164 6.69439C1.27177 6.69427 1.28958 6.65821 1.30676 6.59047C1.32851 6.50475 1.3434 6.39178 1.35177 6.25529C1.35928 6.13274 1.36091 6.02837 1.36073 5.82745C1.36071 5.80701 1.37368 3.69359 1.37368 3.69359C1.32631 3.62876 1.29795 3.5487 1.29795 3.4597V2.94397C1.29795 2.83856 1.33785 2.74515 1.40224 2.67485C1.40224 2.47725 1.47523 2.36648 1.58248 2.28122L1.67303 2.20923H3.40571L3.49635 2.28147C3.60375 2.36707 3.67627 2.47738 3.67627 2.62735C3.74063 2.74524 3.78056 2.83858 3.78056 2.94397V3.4597C3.78056 3.54886 3.75223 3.62878 3.70496 3.69344L3.71961 5.78711C3.71941 6.02837 3.72104 6.13274 3.72855 6.25529C3.73692 6.39178 3.75181 6.50475 3.77356 6.59047C3.79073 6.65818 3.80853 6.69424 3.80868 6.69439C3.8468 6.72759 4.03065 6.87911 4.03223 6.88043Z" fill="#D1D2DC"/>
<path d="M11.4387 5.71911C11.5762 5.83435 11.6882 5.93398 11.7978 6.04155C12.3666 6.59958 12.6945 7.21197 12.6959 7.96932V19.1368C12.6959 19.463 12.6741 19.7539 12.6375 20.0064C12.6149 20.1623 12.5916 20.2734 12.5744 20.3366C12.5639 20.3933 12.5513 20.4396 12.5343 20.484L12.4994 20.6125L12.4725 20.6093C12.3875 20.7481 12.2562 20.866 12.0889 20.9639L12.0114 21.0092H7.31218L7.23464 20.9639C7.06715 20.8658 6.93585 20.7481 6.85088 20.6093L6.82405 20.6125L6.78929 20.4844C6.7723 20.4398 6.75961 20.3934 6.75148 20.3451C6.73199 20.2732 6.70863 20.1621 6.68606 20.0062C6.64948 19.7536 6.62769 19.4627 6.62769 19.1368V7.96932C6.62769 7.21187 6.95529 6.59927 7.52466 6.04079C7.63405 5.9335 7.74566 5.83416 7.88302 5.71897C7.88051 5.72108 8.10987 5.53119 8.15753 5.48945C8.20499 5.44793 8.26124 5.22535 8.28126 4.89759C8.29058 4.74503 8.29259 4.61572 8.29237 4.36746C8.29235 4.34236 8.30838 1.72105 8.30838 1.72105C8.25068 1.65064 8.21557 1.56074 8.21557 1.46V0.826693C8.21557 0.707283 8.26499 0.602452 8.34315 0.527447V0.437896C8.34315 0.281498 8.42016 0.164176 8.53522 0.0723641L8.6259 0H10.6935L10.7842 0.0726166C10.8995 0.164839 10.976 0.281597 10.976 0.437896V0.527615C11.0541 0.602587 11.1036 0.707328 11.1036 0.826693V1.46C11.1036 1.56092 11.0685 1.65063 11.0109 1.72085L11.029 4.31799C11.0288 4.61572 11.0308 4.74503 11.0401 4.89759C11.0601 5.22527 11.1163 5.44782 11.1638 5.48942C11.2112 5.53091 11.4375 5.71806 11.4387 5.71911Z" fill="#D1D2DC"/>
<path d="M18.3915 6.88058C18.505 6.97536 18.5976 7.05748 18.6885 7.14635C19.1642 7.61131 19.44 8.12447 19.4412 8.76058V17.8549C19.4412 18.1235 19.4232 18.3634 19.3928 18.572C19.374 18.7015 19.3544 18.7944 19.3397 18.8483C19.3314 18.894 19.3204 18.9342 19.3057 18.9729L19.2646 19.1238L19.2282 19.1195C19.1534 19.2273 19.0465 19.3193 18.9147 19.3961L18.8373 19.4412H14.9639L14.8865 19.3961C14.7546 19.3192 14.6476 19.2272 14.5729 19.1195L14.5365 19.1238L14.4955 18.9732C14.4808 18.9345 14.4697 18.894 14.4625 18.852C14.4468 18.7943 14.4272 18.7013 14.4084 18.5718C14.378 18.3632 14.36 18.1233 14.36 17.8549V8.76058C14.36 8.12445 14.6356 7.61107 15.1118 7.14573C15.2025 7.05709 15.2948 6.97521 15.4082 6.88048C15.4068 6.88165 15.5934 6.72774 15.6316 6.69439C15.6318 6.69427 15.6496 6.65821 15.6667 6.59047C15.6885 6.50475 15.7034 6.39178 15.7118 6.25529C15.7193 6.13274 15.7209 6.02837 15.7207 5.82745C15.7207 5.80701 15.7337 3.69359 15.7337 3.69359C15.6863 3.62876 15.6579 3.5487 15.6579 3.4597V2.94397C15.6579 2.83856 15.6978 2.74515 15.7622 2.67485C15.7622 2.47725 15.8352 2.36648 15.9425 2.28122L16.033 2.20923H17.7648L17.8554 2.28147C17.9628 2.36707 18.0354 2.47738 18.0354 2.62735C18.0997 2.74524 18.1396 2.83858 18.1396 2.94397V3.4597C18.1396 3.54886 18.1113 3.62878 18.064 3.69344L18.0787 5.78711C18.0785 6.02837 18.0801 6.13274 18.0876 6.25529C18.096 6.39178 18.1109 6.50475 18.1326 6.59047C18.1498 6.65818 18.1676 6.69424 18.1678 6.69439C18.2059 6.72761 18.3899 6.8792 18.3915 6.88058Z" fill="#D1D2DC"/>
</svg>
