<svg width="120" height="120" viewBox="0 0 120 120" fill="none" xmlns="http://www.w3.org/2000/svg">
<path fill-rule="evenodd" clip-rule="evenodd" d="M110 26.6667L25.4107 18.2411C24.9867 16.4255 24.2729 14.4234 22.3279 12.8591C19.9023 10.9086 15.9849 10 10 10V14.1669C14.8474 14.1669 18.1164 14.8195 19.7167 16.1063C20.8776 17.0398 21.1865 18.2997 21.5826 20.2701L21.5763 20.2711L32.5273 81.1143C33.1557 84.87 34.4008 87.6792 35.9885 89.7044C37.8758 92.1125 40.3471 93.3333 43.3333 93.3333H105.833V89.1667H43.3333H43.32C42.0755 89.1668 38.3438 89.1671 36.6279 80.3763L35.2141 72.5221L105.833 60L110 26.6667ZM28.75 103.75C28.75 100.3 31.55 97.5 35 97.5C38.45 97.5 41.25 100.3 41.25 103.75C41.25 107.2 38.45 110 35 110C31.55 110 28.75 107.2 28.75 103.75ZM87.2135 103.75C87.2135 100.3 90.0135 97.5 93.4635 97.5C96.9135 97.5 99.7135 100.3 99.7135 103.75C99.7135 107.2 96.9135 110 93.4635 110C90.0135 110 87.2135 107.2 87.2135 103.75ZM34.4763 68.4212L102.341 56.4447L105.345 30.4806L26.2128 22.5098L34.4763 68.4212Z" fill="white"/>
</svg>
