<svg width="64" height="32" viewBox="0 0 64 32" fill="none" xmlns="http://www.w3.org/2000/svg">
<path fill-rule="evenodd" clip-rule="evenodd" d="M39.8681 25.7804C37.7838 25.7804 39.1426 21.1148 39.5048 20.0675C39.8899 18.9503 40.9487 16.6309 41.8581 15.9447C42.9054 15.1537 44.0596 15.1584 45.3104 15.3425C45.5898 15.3821 46.7888 15.6418 47.059 15.7723L46.621 17.9846L45.9094 19.4326C45.6679 19.9044 44.9678 21.0484 44.6724 21.448L43.2894 23.2525L42.0018 24.6714C41.55 25.1292 40.505 25.7804 39.8681 25.7804ZM45.9094 21.0519C45.9094 21.2616 45.6174 22.6677 45.5541 22.9927C45.4288 23.6346 45.3185 24.2637 45.1874 24.9195C44.9299 26.2056 45.2748 27.7515 46.7705 27.7573C48.2247 27.762 49.5376 26.837 50.4573 26.0484C50.7838 25.7699 50.8873 25.6418 51.1919 25.3366C51.292 25.2341 51.6598 24.7949 51.7001 24.6842C51.7277 24.6003 51.8541 23.7965 51.8541 23.6754L51.1046 24.4699C51.1 24.4757 51.0942 24.4827 51.0908 24.4873C51.0574 24.52 51.0908 24.4908 51.0402 24.5351C50.6263 24.8986 50.2837 25.2912 49.7698 25.6441C49.341 25.9412 48.442 26.5866 47.8948 26.2616C47.32 25.9202 47.6752 24.5654 47.7718 24.0714C47.8408 23.7103 47.9293 23.3329 48.0063 22.9484C48.3742 21.0624 48.8042 19.1903 49.1732 17.3299L49.8722 13.9271C49.5146 13.9271 49.1341 13.8665 48.9134 13.8595C47.5108 13.7884 46.045 13.7197 44.6528 13.9492C43.855 14.0797 43.1595 14.28 42.5122 14.5631C42.0064 14.7845 41.4097 15.1258 40.9671 15.4613L40.398 15.9203C39.8221 16.3595 39.0748 17.0969 38.6426 17.6398C37.4791 19.1041 36.7744 20.4589 36.3456 22.3089C36.026 23.6893 35.9524 25.6581 36.8733 26.9058C37.9148 28.3189 39.5174 27.7795 40.7728 27.0211C41.1212 26.8114 41.4396 26.5458 41.7535 26.2965C41.8316 26.2394 41.8661 26.1928 41.942 26.1311C42.3524 25.7956 42.6352 25.4857 43.0089 25.1083L43.6618 24.3778C44.2804 23.6381 45.2943 22.1866 45.7691 21.2674C45.8278 21.1579 45.8209 21.116 45.9094 21.0519Z" fill="#5F5F6E"/>
<path fill-rule="evenodd" clip-rule="evenodd" d="M13.0851 10.9447L10.8928 10.9249V9.61668L13.3403 9.60037C13.3438 9.3802 13.4288 9.05867 13.4702 8.84316C13.8462 6.92332 13.8025 5.73158 15.0372 4.18103C15.9362 3.05452 17.4778 2.67591 18.8804 3.0953C19.1241 3.17102 19.3092 3.25023 19.5173 3.35624L20.1151 3.65913L22.0085 1.7556C21.8304 1.74279 21.5188 1.67988 21.3533 1.66008C19.1552 1.54358 17.1927 1.70435 15.2441 2.89842C13.0644 4.23578 11.494 6.66936 10.956 9.1775C10.8399 9.72036 10.91 9.59804 10.6571 9.58639L7.64505 9.58174C7.4772 9.58989 7.48755 9.60503 7.4864 9.77628L7.491 10.9459H10.6226C10.6226 11.1311 10.4122 12.1924 10.3662 12.4696C10.2846 12.9694 10.1926 13.4645 10.0984 13.9771C9.72818 15.9517 9.41088 18.0998 9.03266 20.0546C8.93379 20.5649 8.85216 21.06 8.76824 21.5691C8.68547 22.0793 8.5866 22.5837 8.49463 23.1045C8.01638 25.8025 7.71058 29.5664 4.6698 29.9485C3.43625 30.1047 2.63151 29.7785 1.60833 29.5373L1.2301 29.9951C1.1002 30.1571 0.958791 30.291 0.828883 30.4623L0.143702 31.2591C0.0586296 31.3698 0.0264399 31.3698 0.0137939 31.5224C1.59914 31.5224 3.19597 31.7204 4.71464 31.1601C4.83995 31.1147 4.95491 31.0704 5.08367 31.018C5.85967 30.7058 6.41264 30.3167 7.04724 29.8006L7.57262 29.2973C7.72897 29.0911 8.02673 28.7859 8.30264 28.4166C8.46129 28.2069 8.58545 27.9996 8.7326 27.7806C8.87171 27.5662 8.98092 27.3635 9.11083 27.1294C10.2536 25.0569 10.9744 22.2401 11.4285 19.9265C11.5412 19.3545 11.6722 18.7196 11.7688 18.1325C12.0596 16.3617 12.4597 14.5083 12.7552 12.7504L13.0851 10.9447Z" fill="#5F5F6E"/>
<path fill-rule="evenodd" clip-rule="evenodd" d="M13.0852 10.9449L63.4563 10.9461L64.0001 9.5854L54.7628 9.57608L54.3133 9.59705C53.9212 9.54579 33.9245 9.5854 33.7935 9.5854C27.3935 9.5854 20.99 9.5854 14.5866 9.5854C14.2233 9.5854 13.6014 9.61685 13.3404 9.60055L10.8928 9.61685V10.9251L13.0852 10.9449Z" fill="#5F5F6E"/>
<path fill-rule="evenodd" clip-rule="evenodd" d="M55.0835 14.9953C55.4939 14.9953 55.9376 14.965 56.2572 15.2935C56.7999 15.8468 56.455 16.9244 56.3366 17.5617C56.2526 18.0241 56.1768 18.4365 56.0859 18.8944L55.341 22.8668C55.1973 23.5938 54.6351 26.3792 54.6351 26.9127C54.6351 27.6711 54.688 28.4737 55.2168 29.0131C55.7365 29.5397 56.1354 29.6993 56.9355 29.6993C58.0254 29.6993 59.3107 29.0003 60.1579 28.4295L62.033 26.929C62.079 26.8207 62.0502 25.9982 62.0502 25.8118C61.9019 25.8526 61.7594 26.0902 61.5754 26.2394C60.9845 26.7147 60.7822 26.9768 59.9981 27.4591C59.5463 27.7363 58.5232 28.2419 58.0714 27.6746C57.6529 27.1469 57.8587 26.1718 57.9771 25.5718L60.6753 12.0806C60.5178 12.1563 60.2419 12.2215 60.0499 12.2868C59.0267 12.6328 57.8874 12.9613 56.8677 13.3061L53.689 14.3278C53.3521 14.4256 53.1486 14.4536 53.1314 14.6376C53.0429 15.6045 53.0222 15.5055 53.3498 15.41C53.4521 15.3785 53.5855 15.3482 53.7039 15.3145C53.9672 15.2387 54.842 14.9953 55.0835 14.9953Z" fill="#5F5F6E"/>
<path fill-rule="evenodd" clip-rule="evenodd" d="M26.6347 17.6511C26.6347 18.7415 26.9681 19.4731 27.6027 20.1033L29.4203 22.1816C29.718 22.5544 29.9963 22.742 30.2699 23.2965C30.8976 24.5674 30.5906 25.9409 29.0846 26.2857C28.7305 26.3649 28.4914 26.3393 28.1373 26.3312C27.6326 26.3183 26.9497 26.0749 26.4933 25.8908C25.7852 25.6031 25.6817 25.4749 25.1023 25.165C24.9885 25.3363 24.2469 26.0644 24.086 26.2415L23.4709 26.9125C23.7434 27.0593 24.7574 27.3633 25.0459 27.425C27.0934 27.8631 29.0789 27.7454 30.8033 26.5385C31.2022 26.2589 31.7368 25.7289 31.984 25.3048C32.1518 25.0194 32.2553 24.8447 32.3702 24.4975C32.7312 23.392 32.5048 22.241 31.8173 21.3708L29.718 18.7706C29.4651 18.4468 29.0846 18.0484 28.9156 17.7035C28.6891 17.2434 28.5155 16.8403 28.5845 16.1926C28.6937 15.1616 29.8491 14.5745 30.7263 14.5745C31.1298 14.5745 31.4482 14.5628 31.8414 14.7073C32.4197 14.9182 33.0278 15.383 33.0278 16.0959C33.0278 16.6248 32.9887 16.5048 32.9635 16.8077H33.7636C33.8349 16.6598 34.0418 15.6859 34.0912 15.4564L34.4016 14.0549C34.105 13.985 33.8912 13.8266 33.2106 13.7078C31.8449 13.4713 30.5837 13.5785 29.3191 14.1528C28.8662 14.3578 28.273 14.7085 27.9235 15.0673L27.6338 15.3585C27.0762 16.005 26.6347 16.6819 26.6347 17.6511Z" fill="#5F5F6E"/>
<path fill-rule="evenodd" clip-rule="evenodd" d="M15.3522 17.7479C15.3522 18.4306 15.597 19.2146 16.0063 19.7435L17.5399 21.4921C17.5997 21.5678 17.6296 21.5923 17.6951 21.6587L18.478 22.5498C18.8172 22.8877 19.3173 23.7194 19.3173 24.387C19.3173 25.023 19.1471 25.5542 18.6953 25.8956C17.502 26.8054 15.766 26.1996 14.5946 25.6067C14.4612 25.5403 14.3589 25.4762 14.2244 25.4016C14.1048 25.3364 13.9761 25.2269 13.8496 25.1966L12.6172 26.4722C12.4517 26.6912 12.2585 26.8031 12.2206 26.9464C12.3585 26.9778 12.4632 27.0279 12.577 27.071C12.7057 27.1188 12.8391 27.1607 12.9586 27.2003C15.0257 27.9063 17.7641 27.8702 19.5127 26.5631C19.9702 26.2183 20.3427 25.8851 20.6646 25.3981C21.5269 24.105 21.4636 22.5755 20.5301 21.343L17.8526 18.0322C17.7308 17.8924 17.6802 17.7922 17.5986 17.6093C17.4112 17.1864 17.3031 16.9441 17.3031 16.4199C17.3031 14.0632 21.7775 13.9071 21.7775 16.2579C21.7775 16.4944 21.7177 16.6133 21.7142 16.8078C22.6397 16.8078 22.5144 16.8824 22.5891 16.5294C22.6179 16.4001 22.6397 16.2894 22.6661 16.1869C22.7432 15.8735 23.0858 14.2251 23.1513 14.0888C22.5017 13.7393 21.4567 13.603 20.5635 13.603C19.1322 13.603 17.4732 14.2589 16.734 15.0033C16.6237 15.114 16.5397 15.1617 16.4305 15.2771C16.3639 15.3481 16.3593 15.3691 16.3029 15.439C15.858 15.9725 15.5407 16.4548 15.4166 17.1969C15.3936 17.3309 15.3522 17.6058 15.3522 17.7479Z" fill="#5F5F6E"/>
<path fill-rule="evenodd" clip-rule="evenodd" d="M56.8079 8.42026C56.6343 8.6812 56.0917 8.96778 55.7422 9.08894C55.487 9.17631 54.9915 9.30329 54.696 9.32542C54.5397 9.33591 54.4121 9.3592 54.2833 9.3592C54.2833 9.49084 54.2776 9.50133 54.3132 9.59685L54.7627 9.57589C54.842 9.54094 55.8376 9.50948 56.6343 8.92468C57.1401 8.55539 56.7539 8.67538 57.3333 8.595C57.5195 8.56937 57.6126 8.57286 57.7862 8.53675C60.4419 7.99039 61.4857 4.48506 61.5064 2.00604L61.5616 1.02632C61.5984 0.760712 61.5708 0.287743 61.5708 0H61.5064C61.4719 0.427536 60.6845 1.63442 60.42 2.00837C58.7738 3.87229 56.2262 5.70359 56.8079 8.42026Z" fill="#5F5F6E"/>
<path fill-rule="evenodd" clip-rule="evenodd" d="M55.0547 6.29443C55.7065 6.29443 56.2342 6.82915 56.2342 7.48851C56.2342 8.1467 55.7065 8.68142 55.0547 8.68142C54.4051 8.68142 53.8774 8.1467 53.8774 7.48851C53.8774 6.82915 54.4051 6.29443 55.0547 6.29443Z" fill="#5F5F6E"/>
<path fill-rule="evenodd" clip-rule="evenodd" d="M59.644 30.6963L59.0014 31.9999H0V31.7564C3.06952 31.9707 5.09172 31.5514 6.40115 30.7009L59.644 30.6963Z" fill="#5F5F6E"/>
</svg>
