<svg width="24" height="24" viewBox="0 0 24 24" fill="none" xmlns="http://www.w3.org/2000/svg">
<path fill-rule="evenodd" clip-rule="evenodd" d="M0 12C0 5.37115 5.37115 0 12 0C18.6288 0 24 5.37115 24 12C24 18.6288 18.6288 24 12 24C5.37115 24 0 18.6288 0 12ZM0.998077 12C0.998077 18.0692 5.93654 23.0019 12 23.0019C18.0635 23.0019 23.0019 18.0635 23.0019 12C23.0019 5.93077 18.0635 0.998077 12 0.998077C5.93077 0.998077 0.998077 5.93654 0.998077 12ZM12.2077 5.65385C9.71539 5.65385 8.325 6.825 8.30769 9.24231H9.39231C9.35769 7.48846 10.2865 6.55962 12.1558 6.55962C13.4942 6.55962 14.6135 7.49423 14.6135 8.85577C14.6135 9.73846 14.1346 10.4538 13.4942 11.0538C12.1904 12.2538 11.8212 13.1308 11.7577 14.775H12.8538L12.8603 14.6212C12.9166 13.2652 12.9293 12.9576 14.1981 11.7C15.075 10.8808 15.6923 10.0673 15.6923 8.80385C15.6923 6.83077 14.1115 5.65385 12.2077 5.65385ZM11.2673 17.3712C11.2673 16.8346 11.7058 16.4019 12.2481 16.4019C12.7904 16.4019 13.2288 16.8346 13.2288 17.3712C13.2288 17.9135 12.7904 18.3462 12.2481 18.3462C11.7058 18.3462 11.2673 17.9077 11.2673 17.3712Z" fill="#D1D2DD"/>
</svg>
