<svg width="20" height="20" viewBox="0 0 20 20" fill="none" xmlns="http://www.w3.org/2000/svg">
<path d="M20 7.59256V18.4843C20 19.3162 19.283 20 18.3982 20H13.3592C12.4743 20 11.7574 19.3162 11.7574 18.4843V12.2641C11.7574 12.1401 11.6495 12.04 11.5147 12.04H8.48525C8.34966 12.04 8.24265 12.1397 8.24265 12.2641V18.4843C8.24265 19.3162 7.52568 20 6.64083 20H1.60182C0.716969 20 0 19.3162 0 18.4843V7.59256C0 7.13759 0.214579 6.71035 0.589151 6.42229L8.10401 0.634247C9.2029 -0.211435 10.7961 -0.211435 11.8951 0.634366L19.4107 6.42308C19.7842 6.71018 19.9986 7.13686 20 7.59256Z" fill="#E97C07"/>
</svg>