<svg width="24" height="24" viewBox="0 0 24 24" fill="none" xmlns="http://www.w3.org/2000/svg">
<mask id="mask0" mask-type="alpha" maskUnits="userSpaceOnUse" x="0" y="0" width="24" height="24">
<path fill-rule="evenodd" clip-rule="evenodd" d="M0 0H24V24H0V0Z" fill="white"/>
</mask>
<g mask="url(#mask0)">
<path fill-rule="evenodd" clip-rule="evenodd" d="M22 20.4843V9.59256C21.9986 9.13686 21.7842 8.71018 21.4107 8.42308L13.8951 2.63437C12.7961 1.78856 11.2029 1.78856 10.104 2.63425L2.58915 8.42229C2.21458 8.71035 2 9.13759 2 9.59256V20.4843C2 21.3162 2.71697 22 3.60182 22H8.64083C9.52568 22 10.2426 21.3162 10.2426 20.4843V14.2641C10.2426 14.1397 10.3497 14.04 10.4853 14.04H13.5147C13.6495 14.04 13.7574 14.1401 13.7574 14.2641V20.4843C13.7574 21.3162 14.4743 22 15.3592 22H20.3982C21.283 22 22 21.3162 22 20.4843ZM13.2764 3.42393L20.7623 9.14869C20.9128 9.2635 20.9994 9.43455 21 9.62062L21 20.39C21 20.7262 20.7108 21 20.3646 21H15.3457C14.9995 21 14.7103 20.7262 14.7103 20.39V14.2389C14.7103 13.6246 14.1722 13.1284 13.5087 13.1284H10.4913C9.82627 13.1284 9.28967 13.6248 9.28967 14.2389V20.39C9.28967 20.7262 9.00051 21 8.65426 21H3.63541C3.28916 21 3 20.7262 3 20.39V9.61933C3 9.43398 3.08634 9.26331 3.23784 9.14763L10.7228 3.42382C11.4624 2.85871 12.5366 2.85871 13.2764 3.42393Z" fill="#D1D2DD"/>
</g>
</svg>
