<svg width="20" height="20" viewBox="0 0 20 20" fill="none" xmlns="http://www.w3.org/2000/svg">
<path fill-rule="evenodd" clip-rule="evenodd" d="M1.66675 10.0004C1.66675 5.40538 5.40508 1.66699 10.0001 1.66699C14.5951 1.66699 18.3334 5.40538 18.3334 10.0004C18.3334 14.5954 14.5951 18.3337 10.0001 18.3337C5.40508 18.3337 1.66675 14.5954 1.66675 10.0004ZM3.1819 10.0004C3.1819 13.7599 6.24048 16.8185 10.0001 16.8185C13.7596 16.8185 16.8183 13.7599 16.8183 10.0004C16.8183 6.24083 13.7597 3.18215 10.0001 3.18215C6.24048 3.18215 3.1819 6.24083 3.1819 10.0004Z" fill="#D1D2DD"/>
<path fill-rule="evenodd" clip-rule="evenodd" d="M9.99989 5.20215C9.44302 5.20215 8.98999 5.65548 8.98999 6.2127C8.98999 6.76942 9.44302 7.22235 9.99989 7.22235C10.5568 7.22235 11.0098 6.76942 11.0098 6.2127C11.0098 5.65548 10.5568 5.20215 9.99989 5.20215Z" fill="#D1D2DD"/>
<path fill-rule="evenodd" clip-rule="evenodd" d="M10 8.7373C9.58162 8.7373 9.24243 9.0765 9.24243 9.49488V14.0403C9.24243 14.4587 9.58162 14.7979 10 14.7979C10.4184 14.7979 10.7576 14.4587 10.7576 14.0403V9.49488C10.7576 9.0765 10.4184 8.7373 10 8.7373Z" fill="#D1D2DD"/>
</svg>
