<svg width="24" height="24" viewBox="0 0 24 24" fill="none" xmlns="http://www.w3.org/2000/svg">
<path d="M12.0001 12.9763C9.78066 12.9763 7.9751 11.178 7.9751 8.96763C7.9751 6.75723 9.7807 4.95898 12.0001 4.95898C14.2194 4.95898 16.025 6.75727 16.025 8.96767C16.025 11.1781 14.2194 12.9763 12.0001 12.9763Z" stroke="#D1D2DD" stroke-width="1.4"/>
<path fill-rule="evenodd" clip-rule="evenodd" d="M12 1C7.58878 1 4 4.57423 4 8.96753C4 14.4198 11.1592 22.4239 11.464 22.762C11.7503 23.0796 12.2502 23.079 12.536 22.762C12.8408 22.4239 20 14.4198 20 8.96753C19.9999 4.57423 16.4112 1 12 1Z" stroke="#D1D2DD" stroke-width="1.4"/>
</svg>
