<svg width="20" height="20" viewBox="0 0 20 20" fill="none" xmlns="http://www.w3.org/2000/svg">
<path fill-rule="evenodd" clip-rule="evenodd" d="M14.875 8.46154V5C14.875 2.23894 12.6924 0 10.0008 0C7.30759 0 5.125 2.23894 5.125 5V8.46154H2.5V20H17.5V8.46154H14.875ZM5.875 5C5.875 2.66716 7.72581 0.769231 10.0008 0.769231C12.2749 0.769231 14.125 2.66716 14.125 5V8.46154H5.875V5ZM16.75 19.2308H3.25V9.23077H16.75V19.2308Z" fill="#D1D2DD"/>
<path fill-rule="evenodd" clip-rule="evenodd" d="M10 11.5385C9.17158 11.5385 8.5 12.2273 8.5 13.0769C8.5 13.7938 8.97803 14.3961 9.625 14.5669V16.1538H10.375V14.5669C11.022 14.3961 11.5 13.7938 11.5 13.0769C11.5 12.2273 10.8284 11.5385 10 11.5385ZM10 13.8462C9.58647 13.8462 9.25 13.5011 9.25 13.0769C9.25 12.6528 9.58647 12.3077 10 12.3077C10.4135 12.3077 10.75 12.6528 10.75 13.0769C10.75 13.5011 10.4135 13.8462 10 13.8462Z" fill="#D1D2DD"/>
</svg>
