<svg width="24" height="24" viewBox="0 0 24 24" fill="none" xmlns="http://www.w3.org/2000/svg">
<path d="M19.2768 14.5282C19.5565 14.5292 19.8357 14.5522 20.1116 14.5971V3.49374C20.1104 2.83271 19.8377 2.19908 19.3532 1.73166C18.8687 1.26424 18.212 1.00114 17.5268 1H3.58482C2.89965 1.00114 2.24287 1.26424 1.75838 1.73166C1.27389 2.19908 1.00118 2.83271 1 3.49374V18.0125C1.00118 18.6736 1.27389 19.3072 1.75838 19.7746C2.24287 20.242 2.89965 20.5051 3.58482 20.5063H14.3527C14.1783 19.791 14.1741 19.0469 14.3405 18.3298C14.5069 17.6128 14.8395 16.9414 15.3133 16.3662C15.7872 15.7909 16.39 15.3267 17.0764 15.0083C17.7629 14.69 18.5152 14.5258 19.2768 14.5282ZM4.75893 4.19146H16.3482C16.5258 4.19146 16.6961 4.25953 16.8217 4.38069C16.9473 4.50184 17.0179 4.66617 17.0179 4.83751C17.0179 5.00885 16.9473 5.17318 16.8217 5.29433C16.6961 5.41549 16.5258 5.48356 16.3482 5.48356H4.75893C4.58133 5.48356 4.411 5.41549 4.28542 5.29433C4.15984 5.17318 4.08929 5.00885 4.08929 4.83751C4.08929 4.66617 4.15984 4.50184 4.28542 4.38069C4.411 4.25953 4.58133 4.19146 4.75893 4.19146ZM4.75893 8.13665H16.3482C16.5258 8.13665 16.6961 8.20471 16.8217 8.32587C16.9473 8.44703 17.0179 8.61135 17.0179 8.78269C17.0179 8.95404 16.9473 9.11836 16.8217 9.23952C16.6961 9.36067 16.5258 9.42874 16.3482 9.42874H4.75893C4.58133 9.42874 4.411 9.36067 4.28542 9.23952C4.15984 9.11836 4.08929 8.95404 4.08929 8.78269C4.08929 8.61135 4.15984 8.44703 4.28542 8.32587C4.411 8.20471 4.58133 8.13665 4.75893 8.13665ZM4.75893 12.0775H16.3482C16.5258 12.0775 16.6961 12.1456 16.8217 12.2667C16.9473 12.3879 17.0179 12.5522 17.0179 12.7236C17.0179 12.8949 16.9473 13.0592 16.8217 13.1804C16.6961 13.3016 16.5258 13.3696 16.3482 13.3696H4.75893C4.58133 13.3696 4.411 13.3016 4.28542 13.1804C4.15984 13.0592 4.08929 12.8949 4.08929 12.7236C4.08929 12.5522 4.15984 12.3879 4.28542 12.2667C4.411 12.1456 4.58133 12.0775 4.75893 12.0775ZM13.1027 17.3148H4.75893C4.58133 17.3148 4.411 17.2467 4.28542 17.1256C4.15984 17.0044 4.08929 16.8401 4.08929 16.6688C4.08929 16.4974 4.15984 16.3331 4.28542 16.2119C4.411 16.0908 4.58133 16.0227 4.75893 16.0227H13.1027C13.2803 16.0227 13.4506 16.0908 13.5762 16.2119C13.7018 16.3331 13.7723 16.4974 13.7723 16.6688C13.7723 16.8401 13.7018 17.0044 13.5762 17.1256C13.4506 17.2467 13.2803 17.3148 13.1027 17.3148ZM19.2768 15.8203C18.5408 15.8207 17.8216 16.0317 17.2099 16.4265C16.5982 16.8213 16.1216 17.3822 15.8404 18.0383C15.5592 18.6945 15.486 19.4163 15.63 20.1126C15.774 20.8089 16.1288 21.4483 16.6495 21.9501C17.1702 22.4518 17.8334 22.7933 18.5553 22.9314C19.2772 23.0695 20.0253 22.998 20.705 22.7259C21.3848 22.4538 21.9656 21.9934 22.3741 21.4028C22.7826 20.8122 23.0004 20.118 23 19.408C22.9992 18.456 22.6065 17.5432 21.9083 16.8705C21.2101 16.1977 20.2636 15.8199 19.2768 15.8203ZM21.0536 20.054H19.2768C19.0992 20.054 18.9289 19.986 18.8033 19.8648C18.6777 19.7437 18.6071 19.5793 18.6071 19.408V17.4397C18.6071 17.2684 18.6777 17.104 18.8033 16.9829C18.9289 16.8617 19.0992 16.7937 19.2768 16.7937C19.4544 16.7937 19.6247 16.8617 19.7503 16.9829C19.8759 17.104 19.9464 17.2684 19.9464 17.4397V18.7619H21.0536C21.2312 18.7619 21.4015 18.83 21.5271 18.9512C21.6527 19.0723 21.7232 19.2366 21.7232 19.408C21.7232 19.5793 21.6527 19.7437 21.5271 19.8648C21.4015 19.986 21.2312 20.054 21.0536 20.054Z" fill="#E97C07"/>
</svg>
