<svg width="22" height="22" viewBox="0 0 22 22" fill="none" xmlns="http://www.w3.org/2000/svg">
<path d="M3.93971 4.60377C3.93971 4.44447 4.00504 4.2917 4.12133 4.17905C4.23761 4.06641 4.39533 4.00313 4.55979 4.00313H14.8693C15.0338 4.00313 15.1915 4.06641 15.3078 4.17905C15.4241 4.2917 15.4894 4.44447 15.4894 4.60377C15.4894 4.76307 15.4241 4.91584 15.3078 5.02848C15.1915 5.14113 15.0338 5.20441 14.8693 5.20441H4.55979C4.39533 5.20441 4.23761 5.14113 4.12133 5.02848C4.00504 4.91584 3.93971 4.76307 3.93971 4.60377ZM4.55979 8.72651H14.8693C15.0338 8.72651 15.1915 8.66323 15.3078 8.55058C15.4241 8.43794 15.4894 8.28517 15.4894 8.12587C15.4894 7.96657 15.4241 7.8138 15.3078 7.70115C15.1915 7.58851 15.0338 7.52523 14.8693 7.52523H4.55979C4.39533 7.52523 4.23761 7.58851 4.12133 7.70115C4.00504 7.8138 3.93971 7.96657 3.93971 8.12587C3.93971 8.28517 4.00504 8.43794 4.12133 8.55058C4.23761 8.66323 4.39533 8.72651 4.55979 8.72651ZM4.55979 12.2482H14.8693C15.0338 12.2482 15.1915 12.1849 15.3078 12.0723C15.4241 11.9596 15.4894 11.8069 15.4894 11.6476C15.4894 11.4883 15.4241 11.3355 15.3078 11.2229C15.1915 11.1102 15.0338 11.0469 14.8693 11.0469H4.55979C4.39533 11.0469 4.23761 11.1102 4.12133 11.2229C4.00504 11.3355 3.93971 11.4883 3.93971 11.6476C3.93971 11.8069 4.00504 11.9596 4.12133 12.0723C4.23761 12.1849 4.39533 12.2482 4.55979 12.2482ZM11.9806 14.5686H4.55979C4.39533 14.5686 4.23761 14.6319 4.12133 14.7446C4.00504 14.8572 3.93971 15.01 3.93971 15.1693C3.93971 15.3286 4.00504 15.4813 4.12133 15.594C4.23761 15.7066 4.39533 15.7699 4.55979 15.7699H11.9806C12.1451 15.7699 12.3028 15.7066 12.4191 15.594C12.5353 15.4813 12.6007 15.3286 12.6007 15.1693C12.6007 15.01 12.5353 14.8572 12.4191 14.7446C12.3028 14.6319 12.1451 14.5686 11.9806 14.5686ZM22 17.6159C22.0007 18.5841 21.6703 19.5253 21.0603 20.2924C20.4503 21.0595 19.5952 21.6093 18.6285 21.8557C17.6618 22.1022 16.6381 22.0315 15.7173 21.6546C14.7965 21.2778 14.0305 20.6161 13.539 19.773H3.5138C2.58221 19.7719 1.6891 19.413 1.03038 18.7749C0.371648 18.1369 0.00109405 17.2717 0 16.3694V3.40361C0.00109405 2.50124 0.371648 1.63614 1.03038 0.998066C1.6891 0.359994 2.58221 0.00105974 3.5138 0H15.9154C16.847 0.00105974 17.7401 0.359994 18.3988 0.998066C19.0576 1.63614 19.4281 2.50124 19.4292 3.40361V13.6685C20.198 14.0253 20.8471 14.5851 21.3019 15.2834C21.7567 15.9818 21.9987 16.7903 22 17.616V17.6159ZM13.0603 18.5717C12.8936 17.8731 12.9074 17.1455 13.1005 16.4534C13.2936 15.7612 13.6601 15.1259 14.1674 14.6037C14.6746 14.0816 15.3071 13.6887 16.0086 13.46C16.7101 13.2313 17.4591 13.1738 18.1891 13.2926V3.40365C18.1883 2.81978 17.9485 2.26002 17.5223 1.84716C17.0961 1.4343 16.5182 1.20204 15.9154 1.20132H3.5138C2.91101 1.20202 2.33312 1.43427 1.90689 1.84714C1.48066 2.26001 1.24089 2.81977 1.24016 3.40365V16.3694C1.24089 16.9533 1.48066 17.5131 1.90689 17.9259C2.33312 18.3388 2.91101 18.5711 3.5138 18.5718L13.0603 18.5717ZM20.7598 17.616C20.7598 16.9866 20.5671 16.3713 20.206 15.8479C19.845 15.3246 19.3318 14.9167 18.7315 14.6759C18.1311 14.435 17.4705 14.372 16.8332 14.4949C16.1958 14.6177 15.6104 14.9208 15.151 15.3659C14.6915 15.8111 14.3786 16.3781 14.2519 16.9955C14.1251 17.6128 14.1903 18.2527 14.439 18.8343C14.6877 19.4158 15.1088 19.9128 15.6491 20.2624C16.1895 20.6121 16.8247 20.7987 17.4745 20.7987C18.3456 20.7977 19.1807 20.462 19.7966 19.8654C20.4125 19.2687 20.7589 18.4598 20.7598 17.616ZM19.0534 17.0154H18.0946V15.8582C18.0946 15.6989 18.0293 15.5461 17.913 15.4334C17.7967 15.3208 17.639 15.2575 17.4745 15.2575C17.3101 15.2575 17.1523 15.3208 17.0361 15.4334C16.9198 15.5461 16.8544 15.6989 16.8544 15.8582V17.616C16.8544 17.7753 16.9198 17.9281 17.0361 18.0407C17.1523 18.1534 17.3101 18.2167 17.4745 18.2167H19.0534C19.2178 18.2167 19.3755 18.1534 19.4918 18.0407C19.6081 17.9281 19.6735 17.7753 19.6735 17.616C19.6735 17.4567 19.6081 17.304 19.4918 17.1913C19.3755 17.0787 19.2178 17.0154 19.0534 17.0154Z" fill="#D1D2DD"/>
</svg>
