<svg width="60" height="40" viewBox="0 0 60 40" fill="none" xmlns="http://www.w3.org/2000/svg">
<path fill-rule="evenodd" clip-rule="evenodd" d="M54.1463 0H5.85366C2.62077 0 0 2.55837 0 5.71429V34.2857C0 37.4416 2.62077 40 5.85366 40H54.1463C57.3792 40 60 37.4416 60 34.2857V5.71429C60 2.55837 57.3792 0 54.1463 0ZM2.63416 5.71426C2.63416 3.97851 4.07558 2.5714 5.85367 2.5714H54.1464C55.9244 2.5714 57.3659 3.97851 57.3659 5.71426V34.2857C57.3659 36.0214 55.9244 37.4285 54.1464 37.4285H5.85367C4.07558 37.4285 2.63416 36.0214 2.63416 34.2857V5.71426Z" fill="#D1D2DD"/>
<path d="M2.63416 8H57.3659V15.5H2.63416V8Z" fill="#D1D2DD"/>
<path d="M49.2245 31.9745C50.2051 31.9745 51 31.191 51 30.2245C51 29.258 50.2051 28.4745 49.2245 28.4745C48.2439 28.4745 47.449 29.258 47.449 30.2245C47.449 31.191 48.2439 31.9745 49.2245 31.9745Z" fill="#D1D2DD"/>
<path d="M33.2449 31.9745C34.2255 31.9745 35.0204 31.191 35.0204 30.2245C35.0204 29.258 34.2255 28.4745 33.2449 28.4745C32.2643 28.4745 31.4694 29.258 31.4694 30.2245C31.4694 31.191 32.2643 31.9745 33.2449 31.9745Z" fill="#D1D2DD"/>
<path d="M44.4898 31.9745C45.4704 31.9745 46.2653 31.191 46.2653 30.2245C46.2653 29.258 45.4704 28.4745 44.4898 28.4745C43.5092 28.4745 42.7143 29.258 42.7143 30.2245C42.7143 31.191 43.5092 31.9745 44.4898 31.9745Z" fill="#D1D2DD"/>
<path d="M28.5102 31.9745C29.4908 31.9745 30.2857 31.191 30.2857 30.2245C30.2857 29.258 29.4908 28.4745 28.5102 28.4745C27.5296 28.4745 26.7347 29.258 26.7347 30.2245C26.7347 31.191 27.5296 31.9745 28.5102 31.9745Z" fill="#D1D2DD"/>
<path d="M39.7551 31.9745C40.7357 31.9745 41.5306 31.191 41.5306 30.2245C41.5306 29.258 40.7357 28.4745 39.7551 28.4745C38.7745 28.4745 37.9796 29.258 37.9796 30.2245C37.9796 31.191 38.7745 31.9745 39.7551 31.9745Z" fill="#D1D2DD"/>
<path d="M23.7755 31.9745C24.7561 31.9745 25.551 31.191 25.551 30.2245C25.551 29.258 24.7561 28.4745 23.7755 28.4745C22.7949 28.4745 22 29.258 22 30.2245C22 31.191 22.7949 31.9745 23.7755 31.9745Z" fill="#D1D2DD"/>
</svg>
