<svg width="16" height="16" viewBox="0 0 16 16" fill="none" xmlns="http://www.w3.org/2000/svg">
<path d="M8.1375 13.8563C7.94375 13.6625 7.95 13.3563 8.1375 13.1501L12.2875 8.5004H2.5C2.225 8.5004 2 8.27541 2 8.00043C2 7.72545 2.225 7.50047 2.5 7.50047H12.2875L8.14375 2.8508C7.9625 2.63832 7.94375 2.34459 8.1375 2.15085C8.33125 1.95712 8.66875 1.94462 8.85 2.1446C8.85 2.1446 13.8 7.58171 13.85 7.64421C13.9 7.7067 14 7.8192 14 8.00043C14 8.18167 13.9 8.30666 13.85 8.35666C13.8 8.40665 8.85 13.8563 8.85 13.8563C8.75625 13.95 8.625 14 8.49375 14C8.3625 14 8.2375 13.95 8.1375 13.8563Z" fill="#D1D2DD"/>
</svg>
