<svg width="24" height="24" viewBox="0 0 24 24" fill="none" xmlns="http://www.w3.org/2000/svg">
<path d="M21.743 13.1044L21.4335 12.6905C21.0989 12.2397 21.0906 11.6291 21.421 11.1701L21.7221 10.7521C22.1822 10.1128 21.9689 9.22351 21.2621 8.85058L20.802 8.60879C20.3001 8.34651 20.0241 7.79736 20.1203 7.24411L20.2081 6.74004C20.3419 5.96959 19.7522 5.25652 18.9533 5.22373L18.4305 5.20324C17.8617 5.17865 17.3682 4.80162 17.2093 4.26477L17.0629 3.77299C16.8412 3.01893 15.9963 2.62961 15.2602 2.94107L14.7792 3.14188C14.2564 3.36318 13.6458 3.23204 13.2652 2.81403L12.9181 2.4329C12.3869 1.85096 11.4542 1.85506 10.9272 2.44929L10.5842 2.83452C10.2078 3.25662 9.60136 3.39596 9.07437 3.18286L8.5892 2.98615C7.84891 2.68698 7.01241 3.0927 6.79911 3.84676L6.66109 4.34263C6.51052 4.88359 6.02535 5.26881 5.45654 5.2975L4.93373 5.32618C4.13488 5.37126 3.5577 6.09254 3.70408 6.86299L3.80028 7.36706C3.90484 7.91621 3.63716 8.46945 3.13945 8.73993L2.68356 8.98992C1.98509 9.37105 1.78433 10.2644 2.25695 10.8956L2.56645 11.3095C2.90105 11.7603 2.90942 12.3709 2.579 12.8299L2.27786 13.2479C1.81779 13.8872 2.0311 14.7765 2.73794 15.1494L3.19801 15.3912C3.6999 15.6535 3.97594 16.2026 3.87975 16.7559L3.79192 17.26C3.65808 18.0304 4.2478 18.7435 5.04665 18.7763L5.56946 18.7968C6.13828 18.8214 6.63181 19.1984 6.79074 19.7352L6.93713 20.227C7.1588 20.9811 8.00366 21.3704 8.73977 21.0589L9.22075 20.8581C9.74356 20.6368 10.3542 20.768 10.7348 21.186L11.0819 21.5671C11.6173 22.149 12.55 22.1449 13.0728 21.5507L13.4158 21.1655C13.7922 20.7434 14.3986 20.604 14.9256 20.8171L15.4108 21.0139C16.1511 21.313 16.9876 20.9073 17.2009 20.1532L17.3389 19.6574C17.4895 19.1164 17.9746 18.7312 18.5435 18.7025L19.0663 18.6738C19.8651 18.6287 20.4423 17.9075 20.2959 17.137L20.1997 16.6329C20.0952 16.0838 20.3628 15.5305 20.8605 15.2601L21.3164 15.0101C22.0149 14.6331 22.2157 13.7397 21.743 13.1044Z" fill="#D1D2DD"/>
<path d="M7.22571 10.3014C7.22571 9.18675 8.14585 8.28516 9.28348 8.28516C10.4211 8.28516 11.3413 9.18675 11.3413 10.3014C11.3413 11.4161 10.4211 12.3177 9.28348 12.3177C8.14585 12.3177 7.22571 11.412 7.22571 10.3014Z" fill="#2C2C33"/>
<path d="M9.68087 15.5017C9.5052 15.7107 9.18733 15.7394 8.97403 15.5673C8.76072 15.3952 8.73145 15.0837 8.90711 14.8747L14.3067 8.50211C14.4823 8.2931 14.8002 8.26441 15.0135 8.43654C15.2268 8.60866 15.2561 8.92012 15.0804 9.12912L9.68087 15.5017Z" fill="#2C2C33"/>
<path d="M14.7082 15.7113C13.5705 15.7113 12.6504 14.8097 12.6504 13.695C12.6504 12.5803 13.5705 11.6787 14.7082 11.6787C15.8458 11.6787 16.7659 12.5803 16.7659 13.695C16.7659 14.8097 15.8458 15.7113 14.7082 15.7113Z" fill="#2C2C33"/>
<path d="M9.28767 11.1369C9.75889 11.1369 10.1409 10.7626 10.1409 10.3009C10.1409 9.83914 9.75889 9.46484 9.28767 9.46484C8.81645 9.46484 8.43445 9.83914 8.43445 10.3009C8.43445 10.7626 8.81645 11.1369 9.28767 11.1369Z" fill="#D1D2DD"/>
<path d="M14.7082 14.5304C15.1794 14.5304 15.5614 14.1561 15.5614 13.6944C15.5614 13.2327 15.1794 12.8584 14.7082 12.8584C14.237 12.8584 13.855 13.2327 13.855 13.6944C13.855 14.1561 14.237 14.5304 14.7082 14.5304Z" fill="#D1D2DD"/>
</svg>
