<svg width="22" height="22" viewBox="0 0 22 22" fill="none" xmlns="http://www.w3.org/2000/svg">
<path fill-rule="evenodd" clip-rule="evenodd" d="M15.099 13.8802L21 19.7865L19.7865 21L13.8906 15.0938C12.5312 16.1927 10.8021 16.8542 8.91667 16.8542C4.54688 16.8542 1 13.3021 1 8.92708C1 4.55208 4.54167 1 8.91667 1C13.2865 1 16.8333 4.54688 16.8333 8.92708C16.8333 10.8021 16.1823 12.526 15.099 13.8802ZM1.83333 8.93229C1.83333 10.8281 2.56771 12.6094 3.90625 13.9479C5.24479 15.2865 7.02604 16.026 8.91667 16.0208C10.8073 16.0208 12.5885 15.2812 13.9271 13.9427C15.2604 12.6042 16 10.8229 16 8.92708C16 7.03125 15.2656 5.25 13.9271 3.91146C12.5885 2.57292 10.8073 1.83333 8.91667 1.83333C7.02604 1.83333 5.23958 2.57812 3.90625 3.91667C2.57292 5.25521 1.83333 7.03646 1.83333 8.93229Z" fill="#E97C07"/>
<path d="M21 19.7865L21.3536 20.14L21.707 19.7866L21.3537 19.4331L21 19.7865ZM15.099 13.8802L14.7085 13.5679L14.4291 13.9172L14.7452 14.2336L15.099 13.8802ZM19.7865 21L19.4326 21.3532L19.7861 21.7074L20.14 21.3536L19.7865 21ZM13.8906 15.0938L14.2445 14.7405L13.9264 14.4219L13.5763 14.7049L13.8906 15.0938ZM3.90625 13.9479L4.2598 13.5944H4.2598L3.90625 13.9479ZM8.91667 16.0208V15.5208L8.91529 15.5208L8.91667 16.0208ZM13.9271 13.9427L14.2806 14.2963L14.2813 14.2956L13.9271 13.9427ZM13.9271 3.91146L13.5735 4.26501V4.26501L13.9271 3.91146ZM3.90625 3.91667L3.55201 3.5638L3.90625 3.91667ZM21.3537 19.4331L15.4527 13.5268L14.7452 14.2336L20.6463 20.1399L21.3537 19.4331ZM20.14 21.3536L21.3536 20.14L20.6464 19.4329L19.4329 20.6464L20.14 21.3536ZM13.5368 15.447L19.4326 21.3532L20.1403 20.6468L14.2445 14.7405L13.5368 15.447ZM8.91667 17.3542C10.9212 17.3542 12.7604 16.6504 14.205 15.4826L13.5763 14.7049C12.3021 15.735 10.6829 16.3542 8.91667 16.3542V17.3542ZM0.5 8.92708C0.5 13.5776 4.27009 17.3542 8.91667 17.3542V16.3542C4.82366 16.3542 1.5 13.0266 1.5 8.92708H0.5ZM8.91667 0.5C4.26467 0.5 0.5 4.2768 0.5 8.92708H1.5C1.5 4.82737 4.81866 1.5 8.91667 1.5V0.5ZM17.3333 8.92708C17.3333 4.27116 13.563 0.5 8.91667 0.5V1.5C13.0099 1.5 16.3333 4.82259 16.3333 8.92708H17.3333ZM15.4894 14.1926C16.6411 12.7529 17.3333 10.9197 17.3333 8.92708H16.3333C16.3333 10.6845 15.7235 12.2992 14.7085 13.5679L15.4894 14.1926ZM4.2598 13.5944C3.01555 12.3501 2.33333 10.6962 2.33333 8.93229H1.33333C1.33333 10.96 2.11987 12.8686 3.5527 14.3015L4.2598 13.5944ZM8.91529 15.5208C7.15868 15.5257 5.5049 14.8395 4.2598 13.5944L3.5527 14.3015C4.98468 15.7335 6.8934 16.5264 8.91804 16.5208L8.91529 15.5208ZM13.5735 13.5892C12.3285 14.8342 10.6743 15.5208 8.91667 15.5208V16.5208C10.9403 16.5208 12.8486 15.7283 14.2806 14.2963L13.5735 13.5892ZM15.5 8.92708C15.5 10.6902 14.8131 12.3447 13.5728 13.5898L14.2813 14.2956C15.7077 12.8636 16.5 10.9556 16.5 8.92708H15.5ZM13.5735 4.26501C14.8178 5.50927 15.5 7.16313 15.5 8.92708H16.5C16.5 6.89937 15.7135 4.99073 14.2806 3.5579L13.5735 4.26501ZM8.91667 2.33333C10.6743 2.33333 12.3285 3.01995 13.5735 4.26501L14.2806 3.5579C12.8486 2.12588 10.9403 1.33333 8.91667 1.33333V2.33333ZM4.26049 4.26953C5.50032 3.02486 7.15944 2.33333 8.91667 2.33333V1.33333C6.89264 1.33333 4.97885 2.13139 3.55201 3.5638L4.26049 4.26953ZM2.33333 8.93229C2.33333 7.16917 3.02019 5.51467 4.26049 4.26953L3.55201 3.5638C2.12564 4.99574 1.33333 6.90374 1.33333 8.93229H2.33333Z" fill="#E97C07"/>
</svg>