<svg width="18" height="18" viewBox="0 0 18 18" fill="none" xmlns="http://www.w3.org/2000/svg">
<path fill-rule="evenodd" clip-rule="evenodd" d="M12.0742 11.1602L16.5 15.5898L15.5898 16.5L11.168 12.0703C10.1484 12.8945 8.85156 13.3906 7.4375 13.3906C4.16016 13.3906 1.5 10.7266 1.5 7.44531C1.5 4.16406 4.15625 1.5 7.4375 1.5C10.7148 1.5 13.375 4.16016 13.375 7.44531C13.375 8.85156 12.8867 10.1445 12.0742 11.1602ZM2.125 7.44922C2.125 8.87109 2.67578 10.207 3.67969 11.2109C4.68359 12.2148 6.01953 12.7695 7.4375 12.7656C8.85547 12.7656 10.1914 12.2109 11.1953 11.207C12.1953 10.2031 12.75 8.86719 12.75 7.44531C12.75 6.02344 12.1992 4.6875 11.1953 3.68359C10.1914 2.67969 8.85547 2.125 7.4375 2.125C6.01953 2.125 4.67969 2.68359 3.67969 3.6875C2.67969 4.69141 2.125 6.02734 2.125 7.44922Z" fill="#D1D2DD"/>
<path d="M16.5 15.5898L16.8536 15.9434L17.207 15.59L16.8537 15.2364L16.5 15.5898ZM12.0742 11.1602L11.6838 10.8478L11.4043 11.1971L11.7205 11.5136L12.0742 11.1602ZM15.5898 16.5L15.236 16.8532L15.5895 17.2074L15.9434 16.8536L15.5898 16.5ZM11.168 12.0703L11.5218 11.7171L11.2038 11.3984L10.8536 11.6815L11.168 12.0703ZM3.67969 11.2109L4.03324 10.8574L3.67969 11.2109ZM7.4375 12.7656V12.2656L7.43612 12.2656L7.4375 12.7656ZM11.1953 11.207L11.5489 11.5606L11.5496 11.5599L11.1953 11.207ZM3.67969 3.6875L4.03393 4.04036L3.67969 3.6875ZM16.8537 15.2364L12.4279 10.8068L11.7205 11.5136L16.1463 15.9432L16.8537 15.2364ZM15.9434 16.8536L16.8536 15.9434L16.1464 15.2363L15.2363 16.1464L15.9434 16.8536ZM10.8141 12.4236L15.236 16.8532L15.9437 16.1468L11.5218 11.7171L10.8141 12.4236ZM7.4375 13.8906C8.97073 13.8906 10.3776 13.3522 11.4823 12.4591L10.8536 11.6815C9.91931 12.4368 8.7324 12.8906 7.4375 12.8906V13.8906ZM1 7.44531C1 11.0021 3.88337 13.8906 7.4375 13.8906V12.8906C4.43694 12.8906 2 10.4511 2 7.44531H1ZM7.4375 1C3.87925 1 1 3.88878 1 7.44531H2C2 4.43935 4.43325 2 7.4375 2V1ZM13.875 7.44531C13.875 3.88444 10.9914 1 7.4375 1V2C10.4383 2 12.875 4.43587 12.875 7.44531H13.875ZM12.4647 11.4725C13.3455 10.3714 13.875 8.96913 13.875 7.44531H12.875C12.875 8.734 12.4279 9.91764 11.6838 10.8478L12.4647 11.4725ZM4.03324 10.8574C3.12362 9.94776 2.625 8.73922 2.625 7.44922H1.625C1.625 9.00297 2.22794 10.4663 3.32613 11.5645L4.03324 10.8574ZM7.43612 12.2656C6.15217 12.2692 4.9437 11.7678 4.03324 10.8574L3.32613 11.5645C4.42349 12.6618 5.88689 13.2699 7.43888 13.2656L7.43612 12.2656ZM10.8418 10.8535C9.93133 11.7639 8.72245 12.2656 7.4375 12.2656V13.2656C8.98849 13.2656 10.4515 12.658 11.5489 11.5606L10.8418 10.8535ZM12.25 7.44531C12.25 8.73447 11.748 9.94366 10.8411 10.8542L11.5496 11.5599C12.6426 10.4626 13.25 8.9999 13.25 7.44531H12.25ZM10.8418 4.03715C11.7514 4.94677 12.25 6.15531 12.25 7.44531H13.25C13.25 5.89156 12.6471 4.42823 11.5489 3.33004L10.8418 4.03715ZM7.4375 2.625C8.72245 2.625 9.93133 3.12672 10.8418 4.03715L11.5489 3.33004C10.4515 2.23266 8.98849 1.625 7.4375 1.625V2.625ZM4.03393 4.04036C4.94043 3.13033 6.15293 2.625 7.4375 2.625V1.625C5.88613 1.625 4.41895 2.23686 3.32545 3.33464L4.03393 4.04036ZM2.625 7.44922C2.625 6.16006 3.12696 4.95087 4.03393 4.04036L3.32545 3.33464C2.23241 4.43194 1.625 5.89463 1.625 7.44922H2.625Z" fill="#D1D2DD"/>
</svg>
