<svg width="46" height="54" viewBox="0 0 46 54" fill="none" xmlns="http://www.w3.org/2000/svg">
<path fill-rule="evenodd" clip-rule="evenodd" d="M23 0L0.5 9.81818V24.5455C0.5 38.1805 10.0875 50.895 23 54C35.9125 50.895 45.5 38.1805 45.5 24.5455V9.81818L23 0Z" fill="#D1D2DD"/>
<path fill-rule="evenodd" clip-rule="evenodd" d="M23 27.0001C26.1078 27.0001 28.625 24.4758 28.625 21.3751C28.625 18.2672 26.1078 15.7501 23 15.7501C19.8922 15.7501 17.375 18.2672 17.375 21.3751C17.375 24.4758 19.8922 27.0001 23 27.0001ZM23 29.8126C19.2523 29.8126 11.75 31.6899 11.75 35.4376V38.2501H34.25V35.4376C34.25 31.6899 26.7477 29.8126 23 29.8126Z" fill="#0C0D0F"/>
</svg>
