<svg width="56" height="56" viewBox="0 0 56 56" fill="none" xmlns="http://www.w3.org/2000/svg">
<path fill-rule="evenodd" clip-rule="evenodd" d="M0 28C0 43.464 12.536 56 28 56C43.464 56 56 43.464 56 28C56 12.536 43.464 0 28 0C12.536 0 0 12.536 0 28ZM54.4444 28C54.4444 42.6049 42.6049 54.4444 28 54.4444C13.3951 54.4444 1.55554 42.6049 1.55554 28C1.55554 13.3951 13.3951 1.55556 28 1.55556C42.6049 1.55556 54.4444 13.3951 54.4444 28Z" fill="#E97C07"/>
<path d="M26.2335 35.8359C25.9706 36.1023 25.5983 36.3243 25.2697 36.3243C24.9412 36.3243 24.5688 36.0912 24.295 35.8248L18.1621 29.6086L20.1115 27.6327L25.2807 32.8721L38.9483 18.9189L40.8648 20.9281L26.2335 35.8359Z" fill="#E97C07"/>
</svg>
