<svg width="144" height="144" viewBox="0 0 144 144" fill="none" xmlns="http://www.w3.org/2000/svg">
<path fill-rule="evenodd" clip-rule="evenodd" d="M0 72C0 111.765 32.2355 144 72 144C111.765 144 144 111.765 144 72C144 32.2355 111.765 0 72 0C32.2355 0 0 32.2355 0 72ZM140 72C140 109.555 109.555 140 72 140C34.4446 140 3.99997 109.555 3.99997 72C3.99997 34.4446 34.4446 4 72 4C109.555 4 140 34.4446 140 72Z" fill="#E97C07"/>
<path d="M67.4575 92.1493C66.7816 92.8343 65.8242 93.4052 64.9793 93.4052C64.1345 93.4052 63.177 92.8058 62.473 92.1207L46.7026 76.1362L51.7153 71.0554L65.0075 84.5281L100.153 48.6484L105.081 53.8149L67.4575 92.1493Z" fill="#E97C07"/>
</svg>
