<svg width="54" height="20" viewBox="0 0 54 20" fill="none" xmlns="http://www.w3.org/2000/svg">
<path fill-rule="evenodd" clip-rule="evenodd" d="M1.41854 16.542H1.8091L1.44334 17.9766C1.38754 18.1874 1.39994 18.3513 1.47433 18.4567C1.54873 18.5621 1.68511 18.6148 1.8897 18.6148C2.08808 18.6148 2.25546 18.5621 2.38565 18.4567C2.51584 18.3513 2.60263 18.1874 2.65842 17.9766L3.02419 16.542H3.42095L3.04899 18.0117C2.96839 18.3279 2.82581 18.568 2.61503 18.7261C2.41045 18.8842 2.13767 18.9662 1.8029 18.9662C1.46814 18.9662 1.23876 18.8901 1.11477 18.732C0.99078 18.5739 0.965982 18.3338 1.04657 18.0176L1.41854 16.542Z" fill="white"/>
<path fill-rule="evenodd" clip-rule="evenodd" d="M3.3652 18.9007L3.98515 16.4473L5.16304 17.8877C5.19403 17.9287 5.22503 17.9697 5.25603 18.0165C5.28702 18.0634 5.31802 18.1161 5.35522 18.1746L5.77058 16.541H6.13634L5.5164 18.9886L4.31371 17.5188C4.28272 17.4778 4.25172 17.4368 4.22072 17.3959C4.18973 17.349 4.16493 17.308 4.14633 17.2553L3.73097 18.8949H3.3652V18.9007Z" fill="white"/>
<path fill-rule="evenodd" clip-rule="evenodd" d="M6.10529 18.9018L6.70043 16.542H7.09719L6.50205 18.9018H6.10529Z" fill="white"/>
<path fill-rule="evenodd" clip-rule="evenodd" d="M7.06619 18.9018L7.66134 16.542H9.01901L8.93842 16.8699H7.97751L7.82872 17.4555H8.78963L8.70284 17.7892H7.74193L7.46296 18.8959H7.06619V18.9018Z" fill="white"/>
<path fill-rule="evenodd" clip-rule="evenodd" d="M8.86407 18.9018L9.45922 16.542H9.85598L9.26084 18.9018H8.86407Z" fill="white"/>
<path fill-rule="evenodd" clip-rule="evenodd" d="M9.82498 18.9018L10.4201 16.542H11.7778L11.6972 16.8699H10.7363L10.5875 17.4613H11.5484L11.4616 17.7951H10.5007L10.3085 18.5563H11.2694L11.1827 18.9018H9.82498Z" fill="white"/>
<path fill-rule="evenodd" clip-rule="evenodd" d="M11.6429 18.8959L11.6414 18.9018V18.8959H11.6429ZM11.6429 18.8959H12.1745H12.2799C12.5651 18.8959 12.7821 18.8783 12.9247 18.8432C13.0735 18.8081 13.2098 18.7554 13.3338 18.6734C13.5012 18.568 13.6438 18.4392 13.7554 18.2752C13.867 18.1113 13.9476 17.9297 14.0034 17.719C14.053 17.514 14.0654 17.3266 14.0344 17.1627C14.0034 17.0046 13.929 16.8699 13.8174 16.7645C13.7306 16.6825 13.619 16.6298 13.4888 16.5947C13.3586 16.5596 13.1168 16.542 12.7697 16.542H12.2365L11.6429 18.8959ZM12.4597 18.5494H12.125L12.5465 16.8806H12.6891H12.8317C13.0363 16.8806 13.1789 16.8923 13.2719 16.9158C13.3649 16.9392 13.4331 16.9743 13.4888 17.0329C13.5632 17.109 13.6066 17.2085 13.6252 17.3198C13.6438 17.431 13.6314 17.5599 13.5942 17.7121C13.557 17.8643 13.5012 17.999 13.4269 18.1103C13.3525 18.2274 13.2595 18.3211 13.1479 18.3972C13.0673 18.4499 12.9805 18.4909 12.8813 18.5143C12.7821 18.5377 12.6395 18.5494 12.4597 18.5494Z" fill="white"/>
<path fill-rule="evenodd" clip-rule="evenodd" d="M15.5594 18.9018L15.826 17.8419V17.8478H15.9748H16.0554C16.2289 17.8478 16.3653 17.8361 16.4521 17.8185C16.5389 17.8009 16.6195 17.7658 16.6939 17.7248C16.7807 17.6721 16.8613 17.596 16.9295 17.5023C16.9977 17.4086 17.0411 17.3032 17.0721 17.192C17.0969 17.0807 17.1031 16.9812 17.0845 16.8875C17.0659 16.7938 17.0225 16.7177 16.9605 16.665C16.9109 16.6181 16.8489 16.5888 16.7683 16.5713C16.6877 16.5537 16.5637 16.542 16.3839 16.542H15.7826L15.1874 18.9018H15.5594ZM16.0306 17.5247H15.9314L16.105 16.8689H16.2042C16.4088 16.8689 16.5451 16.8923 16.6133 16.945C16.6753 16.9919 16.6939 17.0856 16.6629 17.2085C16.6319 17.3256 16.5761 17.4076 16.4893 17.4545C16.4026 17.5013 16.2476 17.5247 16.0306 17.5247Z" fill="white"/>
<path fill-rule="evenodd" clip-rule="evenodd" d="M18.2934 18.2918L18.4173 18.9007H18.8327L18.2748 16.4473L16.4769 18.9007H16.8923L17.3262 18.2918H18.2934ZM18.2375 17.9697H17.5618L17.9524 17.4368C17.9772 17.4017 18.002 17.3607 18.0268 17.3139C18.0578 17.267 18.0826 17.2202 18.1074 17.1675C18.1074 17.2202 18.1074 17.267 18.1136 17.3139C18.1136 17.3549 18.1198 17.3959 18.126 17.431L18.2375 17.9697Z" fill="white"/>
<path fill-rule="evenodd" clip-rule="evenodd" d="M19.403 18.9008L19.6758 17.8234L19.1799 16.5469H19.5952L19.9052 17.3491C19.9114 17.3725 19.9176 17.3959 19.93 17.4311C19.9424 17.4662 19.9486 17.5013 19.961 17.5365C19.9858 17.5013 20.0106 17.4662 20.0354 17.4311C20.0602 17.3959 20.085 17.3666 20.1098 17.3374L20.8351 16.5469H21.2319L20.0726 17.8175L19.7998 18.8949H19.403V18.9008Z" fill="white"/>
<path fill-rule="evenodd" clip-rule="evenodd" d="M23.1785 17.7355C23.1785 17.7179 23.1847 17.6652 23.1971 17.5832C23.2033 17.513 23.2095 17.4603 23.2157 17.4134C23.1909 17.4661 23.1661 17.5188 23.1351 17.5774C23.1041 17.6301 23.0669 17.6886 23.0235 17.7413L22.0688 19.0003L21.7588 17.7179C21.7464 17.6652 21.734 17.6125 21.7278 17.5657C21.7216 17.5188 21.7154 17.4661 21.7154 17.4193C21.703 17.4661 21.6844 17.5188 21.6658 17.5774C21.6472 17.6301 21.6224 17.6886 21.5914 17.7472L21.0335 18.9066H20.6677L21.8642 16.4473L22.2052 17.9346C22.2114 17.958 22.2176 17.999 22.2238 18.0517C22.23 18.1044 22.2424 18.1746 22.2548 18.2566C22.2982 18.1864 22.354 18.1044 22.4284 17.999C22.447 17.9697 22.4656 17.9521 22.4718 17.9346L23.5505 16.4473L23.5133 18.9066H23.1475L23.1785 17.7355Z" fill="white"/>
<path fill-rule="evenodd" clip-rule="evenodd" d="M23.8356 18.9018L24.4308 16.542H25.7884L25.7079 16.8699H24.7469L24.5982 17.4613H25.5591L25.4723 17.7951H24.5114L24.3192 18.5563H25.2801L25.1933 18.9018H23.8356Z" fill="white"/>
<path fill-rule="evenodd" clip-rule="evenodd" d="M25.6459 18.9007L26.2658 16.4473L27.4437 17.8877C27.4747 17.9287 27.5057 17.9697 27.5367 18.0165C27.5677 18.0634 27.5987 18.1161 27.6359 18.1746L28.0512 16.541H28.417L27.7971 18.9886L26.5944 17.5188C26.5634 17.4778 26.5324 17.4368 26.5014 17.3959C26.4704 17.349 26.4456 17.308 26.427 17.2553L26.0116 18.8949H25.6459V18.9007Z" fill="white"/>
<path fill-rule="evenodd" clip-rule="evenodd" d="M29.6817 16.864L29.1671 18.8959H28.7704L29.2849 16.864H28.6402L28.7208 16.5361H30.407L30.3264 16.864H29.6817Z" fill="white"/>
<path fill-rule="evenodd" clip-rule="evenodd" d="M30.097 18.4265L30.4504 18.2859C30.4566 18.3913 30.4876 18.4733 30.5558 18.526C30.624 18.5787 30.717 18.608 30.841 18.608C30.9587 18.608 31.0579 18.5787 31.1447 18.5143C31.2315 18.4499 31.2873 18.3679 31.3121 18.2625C31.3493 18.122 31.2625 17.999 31.0517 17.8936C31.0207 17.876 31.0021 17.8643 30.9835 17.8585C30.748 17.7296 30.5992 17.6184 30.5372 17.513C30.4752 17.4076 30.4628 17.2846 30.5 17.1382C30.5496 16.945 30.655 16.7928 30.8224 16.6698C30.9897 16.5527 31.1757 16.4883 31.3989 16.4883C31.5787 16.4883 31.7213 16.5234 31.8267 16.5878C31.932 16.6522 31.9878 16.7518 32.0064 16.8747L31.6593 17.027C31.6283 16.9509 31.5911 16.8982 31.5415 16.863C31.4919 16.8279 31.4299 16.8103 31.3555 16.8103C31.2501 16.8103 31.1571 16.8396 31.0827 16.8923C31.0083 16.945 30.9587 17.0153 30.9339 17.109C30.8967 17.2495 31.0021 17.3842 31.2439 17.5071C31.2625 17.5189 31.2749 17.5247 31.2873 17.5306C31.4981 17.636 31.6407 17.7414 31.7027 17.8468C31.7647 17.9522 31.7771 18.0751 31.7399 18.2332C31.6841 18.4557 31.5663 18.6314 31.3865 18.7661C31.2067 18.8949 30.9959 18.9652 30.748 18.9652C30.5434 18.9652 30.3822 18.9183 30.2706 18.8246C30.1466 18.7309 30.0908 18.5963 30.097 18.4265Z" fill="white"/>
<path fill-rule="evenodd" clip-rule="evenodd" d="M33.017 18.9018L33.6121 16.542H34.0089L33.4137 18.9018H33.017Z" fill="white"/>
<path fill-rule="evenodd" clip-rule="evenodd" d="M33.9841 18.9007L34.604 16.4473L35.7819 17.8877C35.8129 17.9287 35.8439 17.9697 35.8749 18.0165C35.9059 18.0634 35.9369 18.1161 35.9741 18.1746L36.3894 16.541H36.7552L36.1353 18.9886L34.9326 17.5188C34.9016 17.4778 34.8706 17.4368 34.8396 17.3959C34.8086 17.349 34.7838 17.308 34.7652 17.2553L34.3498 18.8949H33.9841V18.9007Z" fill="white"/>
<path fill-rule="evenodd" clip-rule="evenodd" d="M38.02 16.864L37.5054 18.8959H37.1086L37.6232 16.864H36.9785L37.059 16.5361H38.7453L38.6647 16.864H38.02Z" fill="white"/>
<path fill-rule="evenodd" clip-rule="evenodd" d="M38.4476 18.9018L39.0428 16.542H40.4066L40.3261 16.8699H39.3651L39.2164 17.4613H40.1773L40.0905 17.7951H39.1296L38.9374 18.5563H39.8983L39.8115 18.9018H38.4476Z" fill="white"/>
<path fill-rule="evenodd" clip-rule="evenodd" d="M40.6298 18.8959L40.8964 17.8419H40.9398L41.4792 18.8959H41.9255L41.3614 17.8243C41.5474 17.8009 41.7023 17.7365 41.8263 17.6311C41.9503 17.5257 42.0309 17.3735 42.0805 17.1861C42.1053 17.0748 42.1115 16.9753 42.0929 16.8875C42.0743 16.7938 42.0371 16.7235 41.9751 16.665C41.9255 16.6181 41.8573 16.583 41.7705 16.5654C41.6899 16.5478 41.566 16.5361 41.4048 16.5361H40.853L40.2579 18.8959H40.6298ZM41.07 17.5424H40.9956L41.163 16.8631H41.2374C41.4357 16.8631 41.5659 16.8924 41.6279 16.9451C41.6899 16.9978 41.7023 17.0915 41.6713 17.2203C41.6403 17.3433 41.5845 17.4252 41.5039 17.4721C41.4233 17.5189 41.2807 17.5424 41.07 17.5424Z" fill="white"/>
<path fill-rule="evenodd" clip-rule="evenodd" d="M42.1674 18.9018L42.7625 16.542H44.1202L44.0396 16.8699H43.0787L42.9299 17.4555H43.8908L43.804 17.7892H42.8431L42.5641 18.8959H42.1674V18.9018Z" fill="white"/>
<path fill-rule="evenodd" clip-rule="evenodd" d="M45.3167 18.2918L45.4407 18.9007H45.856L45.2981 16.4473L43.5002 18.9007H43.9156L44.3496 18.2918H45.3167ZM45.2547 17.9697H44.5789L44.9695 17.4368C44.9943 17.4017 45.0191 17.3607 45.0439 17.3139C45.0749 17.267 45.0997 17.2202 45.1245 17.1675C45.1245 17.2202 45.1245 17.267 45.1307 17.3139C45.1307 17.3549 45.1369 17.3959 45.1431 17.431L45.2547 17.9697Z" fill="white"/>
<path fill-rule="evenodd" clip-rule="evenodd" d="M48.435 17.1148C48.3482 17.0211 48.2428 16.9509 48.1312 16.9099C48.0196 16.863 47.8957 16.8396 47.7531 16.8396C47.4865 16.8396 47.2509 16.9216 47.0401 17.0855C46.8294 17.2495 46.693 17.4661 46.6248 17.7296C46.5628 17.9814 46.5876 18.1922 46.7116 18.362C46.8294 18.526 47.0153 18.608 47.2633 18.608C47.4059 18.608 47.5485 18.5845 47.6911 18.5319C47.8337 18.485 47.9762 18.4089 48.125 18.3093L48.0134 18.7426C47.8895 18.8188 47.7593 18.8715 47.6229 18.9066C47.4865 18.9417 47.3501 18.9593 47.2013 18.9593C47.0153 18.9593 46.848 18.93 46.7054 18.8715C46.5628 18.8129 46.445 18.7251 46.352 18.608C46.259 18.4967 46.2032 18.362 46.1784 18.2098C46.1536 18.0576 46.1598 17.8936 46.2094 17.7179C46.2528 17.5423 46.3272 17.3842 46.4264 17.2319C46.5256 17.0797 46.6558 16.945 46.8046 16.8338C46.9533 16.7166 47.1145 16.6288 47.2881 16.5703C47.4617 16.5117 47.6353 16.4824 47.8151 16.4824C47.9576 16.4824 48.0878 16.5 48.2118 16.541C48.3296 16.582 48.4412 16.6405 48.5404 16.7225L48.435 17.1148Z" fill="white"/>
<path fill-rule="evenodd" clip-rule="evenodd" d="M48.4721 18.9018L49.0673 16.542H50.4249L50.3443 16.8699H49.3834L49.2346 17.4613H50.1955L50.1088 17.7951H49.1478L48.9557 18.5563H49.9166L49.8298 18.9018H48.4721Z" fill="white"/>
<path fill-rule="evenodd" clip-rule="evenodd" d="M41.1056 13.7835H38.3902L42.1633 1H44.8786L41.1056 13.7835Z" fill="white"/>
<path fill-rule="evenodd" clip-rule="evenodd" d="M39.6953 1.40073C39.5098 1.15701 39.2191 1.03516 38.8232 1.03516H23.9042L23.1681 3.54195H25.8835H36.7387L35.947 6.21702H25.0918V6.21122H22.3764L20.1249 13.8418H22.8403L24.3495 8.72381H36.5532C36.9367 8.72381 37.2954 8.60195 37.6294 8.35824C37.9634 8.11452 38.1861 7.81278 38.2913 7.45301L39.8005 2.33497C39.918 1.95199 39.8809 1.64445 39.6953 1.40073Z" fill="white"/>
<path fill-rule="evenodd" clip-rule="evenodd" d="M18.5415 12.983C18.3931 13.4879 17.8982 13.8418 17.3416 13.8418H3.34416C2.96067 13.8418 2.67614 13.72 2.49058 13.4763C2.30502 13.2326 2.26172 12.9308 2.37306 12.571L5.78736 1.03516H8.50272L5.45335 11.3409H16.3148L19.3642 1.03516H22.0795L18.5415 12.983Z" fill="white"/>
<path fill-rule="evenodd" clip-rule="evenodd" d="M49.5671 1.02344L53 7.42968L45.7817 13.8359L49.5671 1.02344Z" fill="#098041"/>
<path fill-rule="evenodd" clip-rule="evenodd" d="M47.1548 1.02344L50.5876 7.42968L43.3632 13.8359L47.1548 1.02344Z" fill="#E97626"/>
</svg>
